<?xml version="1.0" standalone="no"?><svg xmlns="http://www.w3.org/2000/svg" viewBox="0 0 1440 320"><path fill="#ffd700" fill-opacity="1" d="M0,320L8.9,314.7C17.8,309,36,299,53,288C71.1,277,89,267,107,256C124.4,245,142,235,160,229.3C177.8,224,196,224,213,240C231.1,256,249,288,267,261.3C284.4,235,302,149,320,138.7C337.8,128,356,192,373,224C391.1,256,409,256,427,224C444.4,192,462,128,480,112C497.8,96,516,128,533,149.3C551.1,171,569,181,587,154.7C604.4,128,622,64,640,69.3C657.8,75,676,149,693,181.3C711.1,213,729,203,747,181.3C764.4,160,782,128,800,117.3C817.8,107,836,117,853,133.3C871.1,149,889,171,907,192C924.4,213,942,235,960,256C977.8,277,996,299,1013,288C1031.1,277,1049,235,1067,192C1084.4,149,1102,107,1120,90.7C1137.8,75,1156,85,1173,106.7C1191.1,128,1209,160,1227,165.3C1244.4,171,1262,149,1280,144C1297.8,139,1316,149,1333,170.7C1351.1,192,1369,224,1387,245.3C1404.4,267,1422,277,1431,282.7L1440,288L1440,0L1431.1,0C1422.2,0,1404,0,1387,0C1368.9,0,1351,0,1333,0C1315.6,0,1298,0,1280,0C1262.2,0,1244,0,1227,0C1208.9,0,1191,0,1173,0C1155.6,0,1138,0,1120,0C1102.2,0,1084,0,1067,0C1048.9,0,1031,0,1013,0C995.6,0,978,0,960,0C942.2,0,924,0,907,0C888.9,0,871,0,853,0C835.6,0,818,0,800,0C782.2,0,764,0,747,0C728.9,0,711,0,693,0C675.6,0,658,0,640,0C622.2,0,604,0,587,0C568.9,0,551,0,533,0C515.6,0,498,0,480,0C462.2,0,444,0,427,0C408.9,0,391,0,373,0C355.6,0,338,0,320,0C302.2,0,284,0,267,0C248.9,0,231,0,213,0C195.6,0,178,0,160,0C142.2,0,124,0,107,0C88.9,0,71,0,53,0C35.6,0,18,0,9,0L0,0Z"></path></svg>