<?xml version="1.0" standalone="no"?><svg xmlns="http://www.w3.org/2000/svg" viewBox="0 0 1440 320"><path fill="#273036" fill-opacity="1" d="M0,224L16,229.3C32,235,64,245,96,229.3C128,213,160,171,192,181.3C224,192,256,256,288,288C320,320,352,320,384,304C416,288,448,256,480,229.3C512,203,544,181,576,186.7C608,192,640,224,672,234.7C704,245,736,235,768,208C800,181,832,139,864,138.7C896,139,928,181,960,170.7C992,160,1024,96,1056,101.3C1088,107,1120,181,1152,218.7C1184,256,1216,256,1248,261.3C1280,267,1312,277,1344,261.3C1376,245,1408,203,1424,181.3L1440,160L1440,0L1424,0C1408,0,1376,0,1344,0C1312,0,1280,0,1248,0C1216,0,1184,0,1152,0C1120,0,1088,0,1056,0C1024,0,992,0,960,0C928,0,896,0,864,0C832,0,800,0,768,0C736,0,704,0,672,0C640,0,608,0,576,0C544,0,512,0,480,0C448,0,416,0,384,0C352,0,320,0,288,0C256,0,224,0,192,0C160,0,128,0,96,0C64,0,32,0,16,0L0,0Z"></path></svg>